<?xml version="1.0" encoding="UTF-8"?>
<svg version="1.1" xmlns="http://www.w3.org/2000/svg" width="500" height="500">
<path d="M0 0 C165 0 330 0 500 0 C500 165 500 330 500 500 C335 500 170 500 0 500 C0 335 0 170 0 0 Z " fill="#000000" transform="translate(0,0)"/>
<path d="M0 0 C3.32547584 1.44983873 5.51211838 3.26322574 8.06856918 5.82247353 C8.87423096 6.62415321 9.67989275 7.42583289 10.50996852 8.2518059 C11.38934431 9.13700738 12.26872011 10.02220886 13.17474365 10.93423462 C14.12234843 11.88096733 15.07039256 12.82726044 16.01883817 13.7731508 C18.62527452 16.37510998 21.22542502 18.98327294 23.82460713 21.59247589 C26.62803817 24.40453377 29.43723624 27.21081988 32.2457428 30.01780701 C37.11136692 34.8823818 41.97331213 39.7506087 46.83278656 44.62132645 C53.8587982 51.66358352 60.89031777 58.70031968 67.92319933 65.7357152 C79.33308589 77.14998036 90.73849781 88.56870588 102.14111328 99.99023438 C113.2185242 111.08599981 124.29803114 122.17966535 135.38037109 133.27050781 C136.06334219 133.95400435 136.74631328 134.63750089 137.44998047 135.34170945 C140.87621584 138.77055488 144.30249255 142.199359 147.72878981 145.6281426 C176.15893725 174.07902769 204.58183052 202.537151 233 231 C231.55016127 234.32547584 229.73677426 236.51211838 227.17752647 239.06856918 C226.37584679 239.87423096 225.57416711 240.67989275 224.7481941 241.50996852 C223.86299262 242.38934431 222.97779114 243.26872011 222.06576538 244.17474365 C221.11903267 245.12234843 220.17273956 246.07039256 219.2268492 247.01883817 C216.62489002 249.62527452 214.01672706 252.22542502 211.40752411 254.82460713 C208.59546623 257.62803817 205.78918012 260.43723624 202.98219299 263.2457428 C198.1176182 268.11136692 193.2493913 272.97331213 188.37867355 277.83278656 C181.33641648 284.8587982 174.29968032 291.89031777 167.2642848 298.92319933 C155.85001964 310.33308589 144.43129412 321.73849781 133.00976562 333.14111328 C121.91400019 344.2185242 110.82033465 355.29803114 99.72949219 366.38037109 C99.04599565 367.06334219 98.36249911 367.74631328 97.65829055 368.44998047 C94.22944512 371.87621584 90.800641 375.30249255 87.3718574 378.72878981 C58.92097231 407.15893725 30.462849 435.58183052 2 464 C-1.32547584 462.55016127 -3.51211838 460.73677426 -6.06856918 458.17752647 C-6.87423096 457.37584679 -7.67989275 456.57416711 -8.50996852 455.7481941 C-9.38934431 454.86299262 -10.26872011 453.97779114 -11.17474365 453.06576538 C-12.12234843 452.11903267 -13.07039256 451.17273956 -14.01883817 450.2268492 C-16.62527452 447.62489002 -19.22542502 445.01672706 -21.82460713 442.40752411 C-24.62803817 439.59546623 -27.43723624 436.78918012 -30.2457428 433.98219299 C-35.11136692 429.1176182 -39.97331213 424.2493913 -44.83278656 419.37867355 C-51.8587982 412.33641648 -58.89031777 405.29968032 -65.92319933 398.2642848 C-77.33308589 386.85001964 -88.73849781 375.43129412 -100.14111328 364.00976562 C-111.2185242 352.91400019 -122.29803114 341.82033465 -133.38037109 330.72949219 C-134.06334219 330.04599565 -134.74631328 329.36249911 -135.44998047 328.65829055 C-138.87621584 325.22944512 -142.30249255 321.800641 -145.72878981 318.3718574 C-174.15893725 289.92097231 -202.58183052 261.462849 -231 233 C-229.55016127 229.67452416 -227.73677426 227.48788162 -225.17752647 224.93143082 C-224.37584679 224.12576904 -223.57416711 223.32010725 -222.7481941 222.49003148 C-221.86299262 221.61065569 -220.97779114 220.73127989 -220.06576538 219.82525635 C-219.11903267 218.87765157 -218.17273956 217.92960744 -217.2268492 216.98116183 C-214.62489002 214.37472548 -212.01672706 211.77457498 -209.40752411 209.17539287 C-206.59546623 206.37196183 -203.78918012 203.56276376 -200.98219299 200.7542572 C-196.1176182 195.88863308 -191.2493913 191.02668787 -186.37867355 186.16721344 C-179.33641648 179.1412018 -172.29968032 172.10968223 -165.2642848 165.07680067 C-153.85001964 153.66691411 -142.43129412 142.26150219 -131.00976562 130.85888672 C-119.91400019 119.7814758 -108.82033465 108.70196886 -97.72949219 97.61962891 C-97.04599565 96.93665781 -96.36249911 96.25368672 -95.65829055 95.55001953 C-92.22944512 92.12378416 -88.800641 88.69750745 -85.3718574 85.27121019 C-56.92097231 56.84106275 -28.462849 28.41816948 0 0 Z " fill="#000000" transform="translate(246,15)"/>
<path d="M0 0 C3.32547584 1.44983873 5.51211838 3.26322574 8.06856918 5.82247353 C8.87423096 6.62415321 9.67989275 7.42583289 10.50996852 8.2518059 C11.38934431 9.13700738 12.26872011 10.02220886 13.17474365 10.93423462 C14.12234843 11.88096733 15.07039256 12.82726044 16.01883817 13.7731508 C18.62527452 16.37510998 21.22542502 18.98327294 23.82460713 21.59247589 C26.62803817 24.40453377 29.43723624 27.21081988 32.2457428 30.01780701 C37.11136692 34.8823818 41.97331213 39.7506087 46.83278656 44.62132645 C53.8587982 51.66358352 60.89031777 58.70031968 67.92319933 65.7357152 C79.33308589 77.14998036 90.73849781 88.56870588 102.14111328 99.99023438 C113.2185242 111.08599981 124.29803114 122.17966535 135.38037109 133.27050781 C136.06334219 133.95400435 136.74631328 134.63750089 137.44998047 135.34170945 C140.87621584 138.77055488 144.30249255 142.199359 147.72878981 145.6281426 C176.15893725 174.07902769 204.58183052 202.537151 233 231 C231.55016127 234.32547584 229.73677426 236.51211838 227.17752647 239.06856918 C226.37584679 239.87423096 225.57416711 240.67989275 224.7481941 241.50996852 C223.86299262 242.38934431 222.97779114 243.26872011 222.06576538 244.17474365 C221.11903267 245.12234843 220.17273956 246.07039256 219.2268492 247.01883817 C216.62489002 249.62527452 214.01672706 252.22542502 211.40752411 254.82460713 C208.59546623 257.62803817 205.78918012 260.43723624 202.98219299 263.2457428 C198.1176182 268.11136692 193.2493913 272.97331213 188.37867355 277.83278656 C181.33641648 284.8587982 174.29968032 291.89031777 167.2642848 298.92319933 C155.85001964 310.33308589 144.43129412 321.73849781 133.00976562 333.14111328 C121.91400019 344.2185242 110.82033465 355.29803114 99.72949219 366.38037109 C99.04599565 367.06334219 98.36249911 367.74631328 97.65829055 368.44998047 C94.22944512 371.87621584 90.800641 375.30249255 87.3718574 378.72878981 C58.92097231 407.15893725 30.462849 435.58183052 2 464 C-1.32547584 462.55016127 -3.51211838 460.73677426 -6.06856918 458.17752647 C-6.87423096 457.37584679 -7.67989275 456.57416711 -8.50996852 455.7481941 C-9.38934431 454.86299262 -10.26872011 453.97779114 -11.17474365 453.06576538 C-12.12234843 452.11903267 -13.07039256 451.17273956 -14.01883817 450.2268492 C-16.62527452 447.62489002 -19.22542502 445.01672706 -21.82460713 442.40752411 C-24.62803817 439.59546623 -27.43723624 436.78918012 -30.2457428 433.98219299 C-35.11136692 429.1176182 -39.97331213 424.2493913 -44.83278656 419.37867355 C-51.8587982 412.33641648 -58.89031777 405.29968032 -65.92319933 398.2642848 C-77.33308589 386.85001964 -88.73849781 375.43129412 -100.14111328 364.00976562 C-111.2185242 352.91400019 -122.29803114 341.82033465 -133.38037109 330.72949219 C-134.06334219 330.04599565 -134.74631328 329.36249911 -135.44998047 328.65829055 C-138.87621584 325.22944512 -142.30249255 321.800641 -145.72878981 318.3718574 C-174.15893725 289.92097231 -202.58183052 261.462849 -231 233 C-229.55016127 229.67452416 -227.73677426 227.48788162 -225.17752647 224.93143082 C-224.37584679 224.12576904 -223.57416711 223.32010725 -222.7481941 222.49003148 C-221.86299262 221.61065569 -220.97779114 220.73127989 -220.06576538 219.82525635 C-219.11903267 218.87765157 -218.17273956 217.92960744 -217.2268492 216.98116183 C-214.62489002 214.37472548 -212.01672706 211.77457498 -209.40752411 209.17539287 C-206.59546623 206.37196183 -203.78918012 203.56276376 -200.98219299 200.7542572 C-196.1176182 195.88863308 -191.2493913 191.02668787 -186.37867355 186.16721344 C-179.33641648 179.1412018 -172.29968032 172.10968223 -165.2642848 165.07680067 C-153.85001964 153.66691411 -142.43129412 142.26150219 -131.00976562 130.85888672 C-119.91400019 119.7814758 -108.82033465 108.70196886 -97.72949219 97.61962891 C-97.04599565 96.93665781 -96.36249911 96.25368672 -95.65829055 95.55001953 C-92.22944512 92.12378416 -88.800641 88.69750745 -85.3718574 85.27121019 C-56.92097231 56.84106275 -28.462849 28.41816948 0 0 Z M-1.53080285 32.28240585 C-2.13759593 32.88995838 -2.74438902 33.49751091 -3.36956978 34.12347412 C-4.07023099 34.82015324 -4.7708922 35.51683235 -5.49278557 36.23462296 C-6.26514955 37.01281261 -7.03751353 37.79100227 -7.83328247 38.59277344 C-8.65170179 39.40948391 -9.47012111 40.22619438 -10.31334102 41.06765366 C-12.59278491 43.34436251 -14.86766013 45.62552759 -17.14072919 47.90859795 C-19.58973748 50.36621253 -22.04449108 52.81807619 -24.49856567 55.27062988 C-28.75253633 59.52354989 -33.00281871 63.78012758 -37.25064468 68.03918457 C-43.39235365 74.19712132 -49.53955287 80.34955297 -55.68812262 86.50063848 C-65.66269534 96.47959259 -75.63279004 106.46300841 -85.60009766 116.44921875 C-95.28460847 126.1520769 -104.97120968 135.85284022 -114.66064453 145.55078125 C-115.2575182 146.14818037 -115.85439187 146.74557948 -116.46935262 147.3610816 C-119.46359122 150.3579302 -122.45787112 153.35473754 -125.45217156 156.35152435 C-150.30785491 181.22795401 -175.15628314 206.11161981 -200 231 C-198.62373101 234.08865121 -197.04893841 236.20017529 -194.66166496 238.58443069 C-193.96797054 239.28210721 -193.27427612 239.97978373 -192.55956066 240.69860196 C-191.79497858 241.45735836 -191.0303965 242.21611475 -190.24264526 242.99786377 C-189.43239305 243.80982484 -188.62214083 244.6217859 -187.78733552 245.45835185 C-185.53794364 247.71046993 -183.28411789 249.95803919 -181.02835679 252.20377445 C-178.59666797 254.62683122 -176.17075665 257.05566008 -173.74414062 259.48379517 C-169.53927345 263.68971135 -165.33075816 267.8919484 -161.11974716 272.09171295 C-155.03132952 278.16388068 -148.94843805 284.24155958 -142.86688377 290.32060036 C-132.99996169 300.18314454 -123.12858099 310.04121355 -113.25439453 319.89648438 C-103.66220897 329.4703136 -94.07212497 339.04623989 -84.48486328 348.625 C-83.8939636 349.21537423 -83.30306393 349.80574846 -82.6942582 350.41401282 C-79.72991898 353.37574198 -76.76562106 356.33751248 -73.80134368 359.29930353 C-49.2072967 383.87261505 -24.60601299 408.43867064 0 433 C3.08865121 431.62373101 5.20017529 430.04893841 7.58443069 427.66166496 C8.28210721 426.96797054 8.97978373 426.27427612 9.69860196 425.55956066 C10.83673656 424.41268754 10.83673656 424.41268754 11.99786377 423.24264526 C12.80982484 422.43239305 13.6217859 421.62214083 14.45835185 420.78733552 C16.71046993 418.53794364 18.95803919 416.28411789 21.20377445 414.02835679 C23.62683122 411.59666797 26.05566008 409.17075665 28.48379517 406.74414062 C32.68971135 402.53927345 36.8919484 398.33075816 41.09171295 394.11974716 C47.16388068 388.03132952 53.24155958 381.94843805 59.32060036 375.86688377 C69.18314454 365.99996169 79.04121355 356.12858099 88.89648438 346.25439453 C98.4703136 336.66220897 108.04623989 327.07212497 117.625 317.48486328 C118.21537423 316.8939636 118.80574846 316.30306393 119.41401282 315.6942582 C122.37574198 312.72991898 125.33751248 309.76562106 128.29930353 306.80134368 C152.87261505 282.2072967 177.43867064 257.60601299 202 233 C200.62429043 229.91396587 199.05056003 227.80016832 196.66725159 225.41556931 C195.62856005 224.36905453 195.62856005 224.36905453 194.56888485 223.30139804 C193.80566701 222.54264164 193.04244917 221.78388525 192.25610352 221.00213623 C191.44726243 220.19017516 190.63842134 219.3782141 189.80506992 218.54164815 C187.55954953 216.28952586 185.30959067 214.04194978 183.05767488 211.79622555 C180.63006499 209.37313571 178.20821098 206.94430469 175.78561401 204.51620483 C171.03960477 199.76129598 166.28819655 195.01181768 161.53483939 190.26425549 C157.67348881 186.4074181 153.8140904 182.54863739 149.95608521 178.68845367 C149.40741211 178.13947411 148.85873901 177.59049454 148.29343945 177.02487923 C147.1789235 175.90972385 146.06441204 174.79456397 144.94990504 173.67939964 C134.49635442 163.22014434 124.03667922 152.76703115 113.57490599 142.31600133 C104.59040377 133.34043973 95.61116534 124.3596402 86.63574219 115.375 C76.21949633 104.94806254 65.80002845 94.52436245 55.37536144 84.10584378 C54.26487502 82.99599448 53.15439279 81.88614099 52.04391479 80.77628326 C51.49749236 80.23016938 50.95106993 79.6840555 50.38808924 79.12139271 C46.52991776 75.26495114 42.67407824 71.40618731 38.81912231 67.54653168 C34.12541962 62.84723269 29.42819668 58.15148739 24.7263577 53.46032855 C22.32565161 51.06489534 19.92660331 48.66786021 17.53182602 46.26649857 C14.9404241 43.66967744 12.34301569 41.0790227 9.74389648 38.4899292 C8.59906972 37.33841027 8.59906972 37.33841027 7.43111515 36.16362834 C6.73865413 35.47638281 6.0461931 34.78913728 5.33274841 34.08106613 C4.733115 33.48175742 4.13348158 32.88244871 3.51567745 32.26497912 C1.40495297 30.50337582 0.57426922 30.51891505 -1.53080285 32.28240585 Z " fill="#FDFDFD" transform="translate(246,15)"/>
<path d="M0 0 C0.9384375 -0.01611328 1.876875 -0.03222656 2.84375 -0.04882812 C15.43867488 -0.05752628 24.71838558 4.14053302 34 12.5 C41.58398253 20.54254892 42.33580749 28.34218983 43.25 39.3125 C34.67 39.3125 26.09 39.3125 17.25 39.3125 C16.59 36.3425 15.93 33.3725 15.25 30.3125 C12.17767608 26.60995579 9.2492062 23.54204838 4.32421875 22.9765625 C-2.68302065 22.87723224 -2.68302065 22.87723224 -9.3125 24.875 C-16.32757407 31.89007407 -17.9459132 40.57068076 -18.13012695 50.20068359 C-18.16691735 65.39420102 -18.16691735 65.39420102 -11.25 78.5 C-5.78332466 82.46333962 -1.43345663 83.12413416 5.25 82.3125 C9.48306516 80.99633688 12.41863263 79.35841379 15.1875 75.875 C16.48482776 72.98083226 16.48482776 72.98083226 17.25 68.3125 C25.83 68.3125 34.41 68.3125 43.25 68.3125 C43.25 78.91024722 39.72385144 86.80643365 32.3359375 94.4140625 C22.52461117 103.34347186 10.14865868 106.18789202 -2.890625 105.625 C-15.46011012 104.60722793 -25.33450864 100.24806962 -34.125 91.0625 C-45.30718632 77.50209818 -47.24627516 59.28675353 -45.75 42.3125 C-43.92317672 28.39819601 -37.92429526 16.13959141 -26.75 7.3125 C-23.52246541 5.3509596 -20.24986073 3.72780418 -16.75 2.3125 C-15.44675781 1.76142578 -15.44675781 1.76142578 -14.1171875 1.19921875 C-9.38863684 -0.04600283 -4.86926636 -0.01645022 0 0 Z " fill="#FCFCFC" transform="translate(248.75,198.6875)"/>
</svg>
