<svg viewBox="0 0 680 200" xmlns="http://www.w3.org/2000/svg">
    <defs>
      <marker id="ha" viewBox="0 0 10 10" refX="8" refY="5" markerWidth="6" markerHeight="6" orient="auto-start-reverse">
        <path d="M2 1L8 5L2 9" fill="none" stroke="#e8956a" stroke-width="1.5" stroke-linecap="round" stroke-linejoin="round"/>
      </marker>
    </defs>
    <rect x="20" y="60" width="120" height="80" rx="8" fill="#111520" stroke="#e8956a" stroke-width="1"/>
    <text x="80" y="92" text-anchor="middle" fill="#e8c87a" font-family="Inter, sans-serif" font-size="11" font-weight="500">USER PROMPT</text>
    <text x="80" y="114" text-anchor="middle" fill="#888" font-family="Inter, sans-serif" font-size="10">raw input</text>
    <rect x="180" y="60" width="120" height="80" rx="8" fill="#111520" stroke="#5DCAA5" stroke-width="1"/>
    <text x="240" y="92" text-anchor="middle" fill="#7FC9A0" font-family="Inter, sans-serif" font-size="11" font-weight="500">CLASSIFIER</text>
    <text x="240" y="114" text-anchor="middle" fill="#4A9B70" font-family="Inter, sans-serif" font-size="10">.ai() — single shot</text>
    <rect x="340" y="20" width="140" height="56" rx="8" fill="#111520" stroke="#e8c87a" stroke-width="1"/>
    <text x="410" y="44" text-anchor="middle" fill="#e8c87a" font-family="Inter, sans-serif" font-size="11" font-weight="500">FAST PATH</text>
    <text x="410" y="60" text-anchor="middle" fill="#a08030" font-family="Inter, sans-serif" font-size="10">2 agents</text>
    <rect x="340" y="120" width="140" height="56" rx="8" fill="#111520" stroke="#E88A8A" stroke-width="1"/>
    <text x="410" y="144" text-anchor="middle" fill="#E88A8A" font-family="Inter, sans-serif" font-size="11" font-weight="500">THOROUGH PATH</text>
    <text x="410" y="160" text-anchor="middle" fill="#B06060" font-family="Inter, sans-serif" font-size="10">4 agents + QA</text>
    <rect x="540" y="60" width="120" height="80" rx="8" fill="#111520" stroke="#e8956a" stroke-width="1"/>
    <text x="600" y="92" text-anchor="middle" fill="#8BB8E8" font-family="Inter, sans-serif" font-size="11" font-weight="500">DRAFT PR</text>
    <text x="600" y="114" text-anchor="middle" fill="#888" font-family="Inter, sans-serif" font-size="10">verified output</text>
    <line x1="140" y1="100" x2="178" y2="100" stroke="#e8956a" stroke-width="1.5" marker-end="url(#ha)"/>
    <path d="M300 85 L338 48" fill="none" stroke="#e8c87a" stroke-width="1.2" marker-end="url(#ha)"/>
    <path d="M300 115 L338 148" fill="none" stroke="#E88A8A" stroke-width="1.2" marker-end="url(#ha)"/>
    <path d="M480 48 L538 85" fill="none" stroke="#e8c87a" stroke-width="1.2" marker-end="url(#ha)"/>
    <path d="M480 148 L538 115" fill="none" stroke="#E88A8A" stroke-width="1.2" marker-end="url(#ha)"/>
</svg>