<svg viewBox="0 0 680 380" xmlns="http://www.w3.org/2000/svg">
    <rect x="30" y="20" width="620" height="340" rx="20" fill="none" stroke="#6b63c7" stroke-width="1" stroke-dasharray="6 4"/>
    <text x="340" y="48" text-anchor="middle" font-family="Inter, sans-serif" font-size="13" font-weight="600" fill="#9b93e8">OUTER LOOP — Replanner</text>
    <text x="340" y="66" text-anchor="middle" font-family="Inter, sans-serif" font-size="10" fill="#7F77DD">Restructures remaining work graph on cascading failures</text>
    <rect x="60" y="82" width="560" height="240" rx="14" fill="none" stroke="#5DCAA5" stroke-width="1" stroke-dasharray="6 4"/>
    <text x="340" y="108" text-anchor="middle" font-family="Inter, sans-serif" font-size="13" font-weight="600" fill="#5DCAA5">MIDDLE LOOP — Issue Advisor</text>
    <text x="340" y="124" text-anchor="middle" font-family="Inter, sans-serif" font-size="10" fill="#3da885">5 recovery actions when inner loop is exhausted</text>
    <rect x="90" y="140" width="500" height="150" rx="10" fill="#111d2e" stroke="#1e3a5f" stroke-width="0.5"/>
    <text x="340" y="168" text-anchor="middle" font-family="Inter, sans-serif" font-size="13" font-weight="600" fill="#8BB8E8">INNER LOOP — Per-task retry</text>
    <text x="340" y="186" text-anchor="middle" font-family="Inter, sans-serif" font-size="10" fill="#5a8fbf">Up to 5 iterations with feedback from QA + review</text>
    <rect x="120" y="204" width="100" height="36" rx="6" fill="#0d1520" stroke="#1e3a5f" stroke-width="0.5"/>
    <text x="170" y="226" text-anchor="middle" font-family="Inter, sans-serif" font-size="11" font-weight="500" fill="#8BB8E8">Code</text>
    <rect x="240" y="204" width="100" height="36" rx="6" fill="#0d1520" stroke="#1e3a5f" stroke-width="0.5"/>
    <text x="290" y="226" text-anchor="middle" font-family="Inter, sans-serif" font-size="11" font-weight="500" fill="#8BB8E8">Test</text>
    <rect x="360" y="204" width="100" height="36" rx="6" fill="#0d1520" stroke="#1e3a5f" stroke-width="0.5"/>
    <text x="410" y="226" text-anchor="middle" font-family="Inter, sans-serif" font-size="11" font-weight="500" fill="#8BB8E8">Review</text>
    <rect x="480" y="204" width="90" height="36" rx="6" fill="#0d1520" stroke="#1e3a5f" stroke-width="0.5"/>
    <text x="525" y="226" text-anchor="middle" font-family="Inter, sans-serif" font-size="11" font-weight="500" fill="#8BB8E8">Fix</text>
    <line x1="220" y1="222" x2="238" y2="222" stroke="#1e3a5f" stroke-width="1"/>
    <line x1="340" y1="222" x2="358" y2="222" stroke="#1e3a5f" stroke-width="1"/>
    <line x1="460" y1="222" x2="478" y2="222" stroke="#1e3a5f" stroke-width="1"/>
    <path d="M525 240 Q 525 262, 340 262 Q 170 262, 170 240" fill="none" stroke="#1e3a5f" stroke-width="1" stroke-dasharray="3 3"/>
    <text x="340" y="276" text-anchor="middle" font-family="Inter, sans-serif" font-size="10" fill="#5a8fbf">retry with feedback</text>
</svg>