<svg viewBox="0 0 680 320" xmlns="http://www.w3.org/2000/svg">
    <defs>
      <marker id="d1a" viewBox="0 0 10 10" refX="8" refY="5" markerWidth="6" markerHeight="6" orient="auto-start-reverse">
        <path d="M2 1L8 5L2 9" fill="none" stroke="context-stroke" stroke-width="1.5" stroke-linecap="round" stroke-linejoin="round"/>
      </marker>
    </defs>
    <rect x="40" y="30" width="280" height="260" rx="16" fill="#0d1520" stroke="#1e3a5f" stroke-width="0.5"/>
    <text x="180" y="60" text-anchor="middle" font-family="Inter, sans-serif" font-size="14" font-weight="600" fill="#8BB8E8">Constrained call</text>
    <text x="180" y="80" text-anchor="middle" font-family="Inter, sans-serif" font-size="11" fill="#5a8fbf">single-shot · structured · no tools</text>
    <rect x="70" y="100" width="220" height="40" rx="6" fill="#111d2e" stroke="#1e3a5f" stroke-width="0.5"/>
    <text x="180" y="124" text-anchor="middle" font-family="Inter, sans-serif" font-size="12" fill="#8BB8E8">Structured input</text>
    <line x1="180" y1="140" x2="180" y2="160" stroke="#1e3a5f" stroke-width="1" marker-end="url(#d1a)"/>
    <rect x="70" y="160" width="220" height="40" rx="6" fill="#111d2e" stroke="#1e3a5f" stroke-width="0.5"/>
    <text x="180" y="184" text-anchor="middle" font-family="Inter, sans-serif" font-size="12" fill="#8BB8E8">Classification / routing</text>
    <line x1="180" y1="200" x2="180" y2="220" stroke="#1e3a5f" stroke-width="1" marker-end="url(#d1a)"/>
    <rect x="70" y="220" width="220" height="40" rx="6" fill="#111d2e" stroke="#1e3a5f" stroke-width="0.5"/>
    <text x="180" y="244" text-anchor="middle" font-family="Inter, sans-serif" font-size="12" fill="#8BB8E8">Structured output</text>
    <text x="180" y="282" text-anchor="middle" font-family="Inter, sans-serif" font-size="11" fill="#5a8fbf">~200ms · fractions of a cent</text>
    <rect x="360" y="30" width="280" height="260" rx="16" fill="#1a1508" stroke="#3d2e10" stroke-width="0.5"/>
    <text x="500" y="60" text-anchor="middle" font-family="Inter, sans-serif" font-size="14" font-weight="600" fill="#e8c87a">Autonomous loop</text>
    <text x="500" y="80" text-anchor="middle" font-family="Inter, sans-serif" font-size="11" fill="#a08030">multi-turn · tool-using · goal-driven</text>
    <rect x="390" y="100" width="220" height="40" rx="6" fill="#1f1a0a" stroke="#3d2e10" stroke-width="0.5"/>
    <text x="500" y="124" text-anchor="middle" font-family="Inter, sans-serif" font-size="12" fill="#e8c87a">Goal + toolset</text>
    <line x1="500" y1="140" x2="500" y2="160" stroke="#3d2e10" stroke-width="1" marker-end="url(#d1a)"/>
    <rect x="390" y="160" width="220" height="40" rx="6" fill="#1f1a0a" stroke="#3d2e10" stroke-width="0.5"/>
    <text x="500" y="184" text-anchor="middle" font-family="Inter, sans-serif" font-size="12" fill="#e8c87a">Iterate: write → test → fix</text>
    <path d="M612 180 Q 630 180, 630 150 Q 630 120, 612 120" fill="none" stroke="#a08030" stroke-width="1" stroke-dasharray="3 3"/>
    <text x="644" y="154" font-family="Inter, sans-serif" font-size="10" fill="#a08030">retry</text>
    <line x1="500" y1="200" x2="500" y2="220" stroke="#3d2e10" stroke-width="1" marker-end="url(#d1a)"/>
    <rect x="390" y="220" width="220" height="40" rx="6" fill="#1f1a0a" stroke="#3d2e10" stroke-width="0.5"/>
    <text x="500" y="244" text-anchor="middle" font-family="Inter, sans-serif" font-size="12" fill="#e8c87a">Verifiable outcome</text>
    <text x="500" y="282" text-anchor="middle" font-family="Inter, sans-serif" font-size="11" fill="#a08030">minutes · dollars per invocation</text>
</svg>